<svg version="1.1" id="Layer_1" xmlns="http://www.w3.org/2000/svg" xmlns:xlink="http://www.w3.org/1999/xlink" x="0px" y="0px"
	 width="100%" viewBox="0 0 1410 2000" enable-background="new 0 0 1410 2000" xml:space="preserve">
<style>
  @keyframes internalPulse1 {
    0% { opacity: 0.85; transform: scale(0.99); transform-origin: center; }
    100% { opacity: 1; transform: scale(1); transform-origin: center; }
  }
  @keyframes internalPulse2 {
    0% { opacity: 0.9; }
    100% { opacity: 1; }
  }
  .pulse-1 { animation: internalPulse1 3s ease-in-out infinite alternate; }
  .pulse-2 { animation: internalPulse2 4s ease-in-out infinite alternate-reverse; }
  .pulse-3 { animation: internalPulse1 5s ease-in-out infinite alternate; }
  .pulse-4 { animation: internalPulse2 6s ease-in-out infinite alternate-reverse; }
</style>


<path fill="#FCFBFB" opacity="1.000000" stroke="none" 
	d="
M585.918884,1613.079346 
	C583.650818,1612.381958 581.137512,1612.098022 579.153442,1610.921631 
	C563.353760,1601.552979 547.740845,1591.867676 531.893188,1582.582397 
	C521.835693,1576.689575 511.371094,1571.494385 501.272858,1565.667969 
	C482.559875,1554.870850 464.040222,1543.738770 445.328217,1532.939941 
	C431.060791,1524.706055 416.614624,1516.782104 402.258789,1508.701172 
	C388.309082,1500.848633 374.411194,1492.903198 360.420593,1485.124268 
	C346.409088,1477.333862 332.240387,1469.823975 318.280273,1461.943726 
	C311.129211,1457.906982 304.366119,1453.188599 297.279449,1449.031006 
	C287.458771,1443.269531 277.421234,1437.876709 267.623291,1432.078003 
	C260.094757,1427.622314 252.944305,1422.519653 245.359253,1418.169312 
	C229.285355,1408.950195 213.041397,1400.027344 196.859650,1390.996582 
	C184.886459,1384.314453 172.869553,1377.709839 160.936508,1370.956909 
	C155.919388,1368.117676 151.119400,1364.897095 146.131226,1362.004150 
	C135.591019,1355.891235 124.943787,1349.962158 114.431892,1343.801636 
	C105.806870,1338.746948 97.363480,1333.382080 88.738098,1328.328003 
	C85.312088,1326.320557 81.335609,1325.171387 78.126778,1322.900879 
	C75.667351,1321.160522 73.147415,1318.566040 72.226250,1315.823486 
	C71.010834,1312.204956 71.037018,1308.070068 71.036247,1304.157104 
	C70.989304,1065.014648 70.995308,825.872253 70.989532,586.729797 
	C70.989365,579.863342 73.267914,575.113464 80.228775,571.982788 
	C89.494705,567.815491 98.085205,562.148315 106.974007,557.139893 
	C113.336510,553.554932 119.739723,550.041382 126.075424,546.409912 
	C133.916428,541.915710 141.705521,537.330994 149.518555,532.787964 
	C156.050201,528.989990 162.587448,525.201721 169.115952,521.398376 
	C176.781281,516.932678 184.373047,512.335571 192.119217,508.015045 
	C200.759293,503.195953 209.681335,498.870453 218.217606,493.880157 
	C228.360306,487.950745 238.133560,481.391937 248.234344,475.387543 
	C256.645538,470.387512 265.352966,465.888428 273.826233,460.989349 
	C279.807739,457.531036 285.515778,453.596130 291.526276,450.192535 
	C301.293854,444.661346 311.260834,439.482788 321.042053,433.974945 
	C326.640381,430.822479 331.946869,427.151794 337.544922,423.998840 
	C348.996002,417.549286 360.636688,411.433990 372.041229,404.905060 
	C379.625092,400.563385 386.822388,395.547546 394.397003,391.188568 
	C403.526764,385.934540 412.865723,381.043243 422.144196,376.050720 
	C422.664856,375.770569 423.458374,375.997467 424.533203,375.973694 
	C424.941498,375.959045 424.966156,375.954346 425.084778,376.307861 
	C423.681641,377.645233 422.190704,378.681152 420.632996,379.604462 
	C410.695496,385.494995 400.743225,391.360687 390.605347,397.257629 
	C390.171936,397.404510 390.004486,397.594971 389.557281,397.889160 
	C388.614014,398.231537 388.012970,398.514130 387.439819,398.845032 
	C294.277496,452.641052 201.108551,506.425568 107.967766,560.258911 
	C96.336105,566.981689 84.854279,573.963745 73.178589,581.285156 
	C73.038589,702.685364 73.022026,823.626099 73.022354,944.566833 
	C73.022354,945.720947 73.246780,946.875061 73.237625,948.479614 
	C73.080757,949.262024 73.028122,949.594055 73.028099,949.926086 
	C73.019623,1070.070068 73.012085,1190.214111 73.041664,1310.358154 
	C73.042023,1311.796997 73.521446,1313.235962 73.879311,1314.968262 
	C75.350517,1316.174927 76.673752,1317.167358 78.095398,1317.989746 
	C167.467087,1369.691528 256.838562,1421.393921 346.234131,1473.054443 
	C360.751434,1481.443848 375.379059,1489.642456 390.120148,1498.020874 
	C390.284637,1498.112549 390.635284,1498.249878 390.849976,1498.522461 
	C393.331970,1500.183350 395.570343,1501.621460 397.870789,1502.952271 
	C459.492157,1538.601929 521.123047,1574.235107 582.724548,1609.918945 
	C583.988037,1610.651001 584.920715,1611.954102 585.985840,1613.013184 
	C585.963928,1613.035645 585.918884,1613.079346 585.918884,1613.079346 
z"/>
<path fill="#FCFBFB" opacity="1.000000" stroke="none" 
	d="
M621.942200,261.942017 
	C624.705688,259.726776 627.276184,257.198120 630.268982,255.355179 
	C639.166077,249.876465 648.194458,244.607498 657.235840,239.367416 
	C669.620605,232.189621 682.065308,225.115265 694.482361,217.993118 
	C697.870850,216.049545 701.045715,213.397461 704.688416,212.316925 
	C709.429321,210.910599 713.632080,213.188126 717.860291,215.824554 
	C727.086304,221.577240 736.797119,226.545898 746.185669,232.046722 
	C752.916748,235.990494 759.359192,240.426514 766.086609,244.376999 
	C776.274963,250.359787 786.627136,256.062775 796.855347,261.978729 
	C803.312134,265.713287 809.600586,269.741577 816.091553,273.413696 
	C822.482971,277.029480 829.115906,280.219086 835.498535,283.849487 
	C848.096558,291.015228 860.590454,298.363892 873.135864,305.622375 
	C882.586487,311.090302 892.112244,316.431458 901.493530,322.015533 
	C915.089355,330.108246 928.507812,338.501099 942.157227,346.500977 
	C948.655151,350.309387 955.637451,353.286316 962.177612,357.029053 
	C973.547058,363.535461 984.695007,370.427734 996.031311,376.993347 
	C1002.638184,380.819855 1009.505249,384.197266 1016.110657,388.026062 
	C1019.912476,390.229736 1023.135376,393.646484 1027.126465,395.266876 
	C1037.130859,399.328613 1045.627686,405.899872 1054.956909,411.060547 
	C1066.506836,417.449707 1077.622314,424.618988 1089.082886,431.176361 
	C1097.007080,435.710297 1105.326172,439.555634 1113.236206,444.112549 
	C1122.889160,449.673645 1132.257080,455.727112 1141.827393,461.435211 
	C1148.469238,465.396637 1155.281006,469.072021 1161.950928,472.987518 
	C1171.007935,478.304260 1179.943115,483.830658 1189.043945,489.070343 
	C1195.099243,492.556641 1201.429565,495.564087 1207.500610,499.024567 
	C1219.471802,505.847931 1231.345459,512.842224 1243.264893,519.756775 
	C1259.931641,529.425171 1276.551880,539.175476 1293.290649,548.717773 
	C1304.880127,555.324707 1316.694336,561.537720 1328.289062,568.135742 
	C1332.946777,570.786194 1337.504150,573.725830 1341.665771,577.081238 
	C1343.378662,578.462280 1344.810181,581.265015 1344.861694,583.456604 
	C1345.159790,596.115723 1345.067383,608.785828 1344.996704,621.451538 
	C1344.687500,676.868652 1344.260742,732.285339 1344.063965,787.702820 
	C1344.015747,801.286926 1344.876099,814.872681 1344.936157,828.459351 
	C1344.976318,837.543335 1344.016479,846.631958 1344.063110,855.715637 
	C1344.266113,895.300659 1344.998901,934.885132 1344.943237,974.468994 
	C1344.804443,1073.051147 1344.303345,1171.632690 1344.056641,1270.214722 
	C1344.027222,1281.966064 1344.459717,1293.730347 1345.082153,1305.467163 
	C1345.500610,1313.358887 1343.616577,1319.276611 1335.422363,1322.212158 
	C1330.390625,1324.014771 1325.678101,1326.708618 1320.414062,1329.002686 
	C1320.006104,1329.003296 1320.015747,1329.021606 1320.060791,1328.675415 
	C1327.450073,1323.853271 1334.794556,1319.377441 1342.441162,1314.619263 
	C1342.823364,1312.846802 1342.973267,1311.356567 1342.973389,1309.866455 
	C1342.984009,1190.821655 1342.985718,1071.776733 1342.957275,952.731873 
	C1342.956909,950.934448 1342.572021,949.137085 1342.602417,946.902344 
	C1342.887085,945.467834 1342.978760,944.470581 1342.978760,943.473389 
	C1342.985474,824.023743 1342.987427,704.574097 1342.961792,585.124451 
	C1342.961426,583.667480 1342.601562,582.210571 1342.202393,580.471680 
	C1340.451050,579.212646 1338.939209,578.179565 1337.358154,577.266357 
	C1246.153076,524.583679 1154.950806,471.896332 1063.722046,419.254425 
	C1051.210205,412.034698 1038.564697,405.046356 1025.807129,397.851318 
	C1025.633179,397.751770 1025.270020,397.582062 1025.045166,397.333008 
	C1022.854126,395.843140 1020.926453,394.535583 1018.916077,393.370941 
	C920.389099,336.293793 821.859741,279.220581 723.307373,222.187256 
	C718.306763,219.293350 713.100342,216.755142 707.671997,213.994446 
	C706.813965,214.228607 706.273804,214.519623 705.399536,214.893555 
	C678.977539,230.061920 652.897034,245.160309 626.781860,260.198364 
	C625.323242,261.038300 623.577698,261.380127 621.957520,261.961151 
	C621.949280,261.968506 621.942200,261.942047 621.942200,261.942017 
z"/>
<path class="pulse-2" fill="#FCFBFB" opacity="1.000000" stroke="none" 
	d="
M1120.066895,1445.069214 
	C1116.199463,1447.998535 1112.556030,1451.302246 1108.417480,1453.778442 
	C1100.091187,1458.760010 1091.408813,1463.143066 1083.029663,1468.040527 
	C1069.310059,1476.059692 1055.755493,1484.361084 1042.054443,1492.412598 
	C1031.153564,1498.818481 1020.197693,1505.136719 1009.148560,1511.282349 
	C1003.325989,1514.520874 997.105469,1517.051636 991.325867,1520.358521 
	C983.344360,1524.925171 975.670532,1530.026245 967.753906,1534.710815 
	C957.333252,1540.877075 946.814758,1546.878662 936.297852,1552.880127 
	C935.661133,1553.243408 934.667419,1552.981201 933.429749,1553.010620 
	C933.019653,1553.011230 933.034424,1553.046631 932.994995,1552.689209 
	C949.875488,1542.470825 966.808655,1532.632812 983.710815,1522.741577 
	C997.592102,1514.618408 1011.436340,1506.432007 1025.481934,1498.209717 
	C1025.666992,1498.145874 1025.997192,1497.935669 1026.342529,1497.891479 
	C1056.011597,1480.900269 1085.328491,1463.941284 1114.677734,1447.038452 
	C1116.301880,1446.103149 1118.194580,1445.633911 1119.987915,1444.978638 
	C1120.013550,1445.009521 1120.066895,1445.069214 1120.066895,1445.069214 
z"/>
<path fill="#FCFBFB" opacity="1.000000" stroke="none" 
	d="
M710.056213,1682.054810 
	C706.126465,1685.723877 702.447510,1682.277344 699.611816,1680.764893 
	C692.371033,1676.903076 685.893738,1671.635620 678.762634,1667.536499 
	C667.546509,1661.089111 655.947144,1655.310791 644.687439,1648.935791 
	C629.699036,1640.449707 614.845642,1631.722778 600.009949,1622.970947 
	C595.216797,1620.143433 590.662170,1616.911499 585.958618,1613.471924 
	C585.918884,1613.079346 585.963928,1613.035645 586.329224,1612.815552 
	C588.192322,1613.301880 589.749817,1613.904907 591.178955,1614.730103 
	C617.404785,1629.873535 643.589722,1645.087891 669.840149,1660.188477 
	C682.504822,1667.473999 695.286865,1674.555420 708.380371,1681.744019 
	C709.173645,1681.856079 709.602356,1681.953247 710.037842,1682.034424 
	C710.044556,1682.018555 710.056213,1682.054810 710.056213,1682.054810 
z"/>
<path class="pulse-4" fill="#FCFBFB" opacity="1.000000" stroke="none" 
	d="
M424.937439,375.946960 
	C427.450958,373.913361 429.780457,371.580933 432.518829,369.924469 
	C444.038971,362.955841 455.638977,356.116241 467.291199,349.370087 
	C477.896454,343.230072 488.617889,337.291107 499.266296,331.225159 
	C504.577301,328.199677 509.826447,325.065582 515.144653,322.053162 
	C515.651428,321.766083 516.451965,321.997498 517.527893,321.967773 
	C517.939697,321.947357 517.964966,321.957489 518.195923,322.274048 
	C517.923706,323.018738 517.472412,323.536255 516.910095,323.862152 
	C487.440399,340.940033 457.966248,358.010223 428.462402,375.028931 
	C427.454468,375.610382 426.138519,375.657928 424.966156,375.954346 
	C424.966156,375.954346 424.941498,375.959045 424.937439,375.946960 
z"/>
<path class="pulse-2" fill="#FCFBFB" opacity="1.000000" stroke="none" 
	d="
M517.931885,321.936218 
	C520.475586,319.878815 522.834595,317.511841 525.613098,315.843414 
	C536.071838,309.563080 546.667480,303.510620 557.211365,297.372101 
	C569.113953,290.442474 580.951965,283.398285 592.951233,276.640411 
	C597.491882,274.083191 602.404297,272.186127 607.544006,269.970154 
	C607.940796,269.952148 607.963867,269.955994 608.139343,270.290314 
	C607.940735,270.953156 607.609131,271.355103 607.186523,271.599762 
	C578.584106,288.158783 549.979492,304.714325 521.342102,321.212830 
	C520.389587,321.761597 519.098328,321.722534 517.964966,321.957489 
	C517.964966,321.957489 517.939697,321.947357 517.931885,321.936218 
z"/>
<path fill="#FCFBFB" opacity="1.000000" stroke="none" 
	d="
M776.069946,1644.071533 
	C766.696411,1649.724243 757.315613,1655.365112 747.954468,1661.038330 
	C745.730957,1662.385864 743.583923,1663.859009 741.382568,1665.243896 
	C735.008301,1669.254150 728.735840,1673.444458 722.199585,1677.171631 
	C718.648499,1679.196411 714.642639,1680.423706 710.449097,1682.032715 
	C710.056213,1682.054810 710.044556,1682.018555 709.969116,1681.677490 
	C731.220398,1668.924072 752.543396,1656.504883 773.895813,1644.136719 
	C774.443359,1643.819702 775.315063,1644.062012 776.046631,1644.047363 
	C776.057678,1644.051270 776.069946,1644.071533 776.069946,1644.071533 
z"/>
<path class="pulse-1" fill="#FCFBFB" opacity="1.000000" stroke="none" 
	d="
M833.067383,1611.068604 
	C831.613831,1612.378540 830.326233,1613.965576 828.679016,1614.952271 
	C819.755066,1620.298950 810.749634,1625.509888 801.757263,1630.741821 
	C794.139343,1635.174194 786.510315,1639.587891 778.851257,1643.948364 
	C778.345154,1644.236450 777.542175,1644.003052 776.473633,1644.041870 
	C776.069946,1644.071533 776.057678,1644.051270 775.860413,1643.715454 
	C794.203613,1632.573486 812.740845,1621.761719 831.304504,1610.995483 
	C831.729431,1610.748779 832.452515,1611.016235 833.046997,1611.046631 
	C833.057495,1611.049316 833.067383,1611.068604 833.067383,1611.068604 
z"/>
<path class="pulse-3" fill="#FCFBFB" opacity="1.000000" stroke="none" 
	d="
M1217.071533,1389.077637 
	C1215.019531,1390.581665 1213.068359,1392.253174 1210.898926,1393.562500 
	C1197.671265,1401.545654 1184.405273,1409.465576 1171.108398,1417.332764 
	C1170.205322,1417.867065 1168.946533,1417.800049 1167.293945,1417.845947 
	C1166.621582,1417.544922 1166.508545,1417.410645 1166.654541,1417.080566 
	C1183.423462,1407.362427 1199.933228,1397.840088 1216.599365,1388.508301 
	C1216.755859,1388.698975 1217.071533,1389.077637 1217.071533,1389.077637 
z"/>
<path class="pulse-1" fill="#FCFBFB" opacity="1.000000" stroke="none" 
	d="
M1317.060669,1331.061523 
	C1314.288574,1333.275024 1311.721313,1335.829468 1308.707397,1337.640137 
	C1298.334473,1343.871338 1287.815430,1349.860107 1277.311279,1355.869751 
	C1276.673340,1356.234741 1275.680420,1355.979126 1274.311523,1355.864014 
	C1273.770264,1355.715820 1273.473022,1355.354004 1273.718994,1355.158081 
	C1287.111084,1347.326904 1300.247314,1339.674561 1313.422241,1332.089233 
	C1314.474243,1331.483521 1315.793091,1331.341431 1317.005859,1331.003662 
	C1317.023682,1331.023438 1317.060669,1331.061523 1317.060669,1331.061523 
z"/>
<path class="pulse-3" fill="#FCFBFB" opacity="1.000000" stroke="none" 
	d="
M933.033569,1553.028320 
	C929.470520,1555.668213 926.045593,1558.536499 922.286316,1560.864990 
	C913.267944,1566.450684 904.116821,1571.824463 894.949158,1577.163574 
	C893.819824,1577.821411 892.263794,1577.746704 890.481689,1578.025391 
	C890.057922,1578.039551 890.034058,1578.045776 889.922607,1577.691772 
	C903.597107,1569.270020 917.378601,1561.194702 931.187256,1553.166016 
	C931.664612,1552.888306 932.412598,1553.075928 933.034424,1553.046631 
	C933.034424,1553.046631 933.019653,1553.011230 933.033569,1553.028320 
z"/>
<path class="pulse-1" fill="#FCFBFB" opacity="1.000000" stroke="none" 
	d="
M873.074585,1588.076172 
	C870.318542,1590.274292 867.774658,1592.832397 864.767334,1594.604126 
	C855.233643,1600.220459 845.533936,1605.555664 835.867249,1610.943848 
	C835.354187,1611.229736 834.554321,1611.000977 833.477661,1611.040283 
	C833.067383,1611.068604 833.057495,1611.049316 832.880859,1610.710205 
	C845.444092,1602.912598 858.177490,1595.442627 870.947327,1588.035522 
	C871.466187,1587.734741 872.329529,1588.027832 873.046631,1588.047363 
	C873.060852,1588.050415 873.074585,1588.076172 873.074585,1588.076172 
z"/>
<path class="pulse-2" fill="#FCFBFB" opacity="1.000000" stroke="none" 
	d="
M1260.064941,1364.065918 
	C1257.585938,1366.057495 1255.289795,1368.351074 1252.593506,1369.983643 
	C1244.632202,1374.804199 1236.529175,1379.393066 1228.433838,1383.988037 
	C1227.384155,1384.583862 1226.052734,1384.682983 1224.297485,1384.848389 
	C1223.633423,1384.552490 1223.523560,1384.420410 1223.675537,1384.096191 
	C1234.766357,1377.608032 1245.583740,1371.291382 1256.444336,1365.050293 
	C1257.485718,1364.451782 1258.796875,1364.322876 1260.002686,1363.999146 
	C1260.022461,1364.022339 1260.064941,1364.065918 1260.064941,1364.065918 
z"/>
<path fill="#FCFBFB" opacity="1.000000" stroke="none" 
	d="
M1163.054565,1420.055176 
	C1156.633911,1424.368774 1150.297241,1428.816040 1143.752441,1432.932129 
	C1141.013672,1434.654419 1137.832764,1435.673584 1134.305908,1436.857666 
	C1133.758789,1436.703003 1133.447144,1436.327271 1133.701416,1436.133057 
	C1139.846680,1432.513062 1145.691162,1429.003174 1151.646118,1425.692261 
	C1155.342651,1423.636963 1159.206543,1421.882690 1163.009766,1420.009033 
	C1163.024292,1420.024780 1163.054565,1420.055176 1163.054565,1420.055176 
z"/>
<path class="pulse-3" fill="#FCFBFB" opacity="1.000000" stroke="none" 
	d="
M890.061646,1578.051758 
	C886.245667,1581.666016 882.384583,1585.199707 876.455383,1586.012939 
	C876.028687,1586.015503 876.035217,1586.046143 875.974854,1585.689941 
	C880.620972,1582.904297 885.327515,1580.474976 890.034058,1578.045776 
	C890.034058,1578.045776 890.057922,1578.039551 890.061646,1578.051758 
z"/>
<path class="pulse-3" fill="#FCFBFB" opacity="1.000000" stroke="none" 
	d="
M1133.915649,1436.890015 
	C1130.454712,1441.029785 1126.228516,1443.969604 1120.464722,1445.040527 
	C1120.066895,1445.069214 1120.013550,1445.009521 1119.950928,1444.623901 
	C1124.407959,1441.601196 1128.927490,1438.964233 1133.447144,1436.327271 
	C1133.447144,1436.327271 1133.758789,1436.703003 1133.915649,1436.890015 
z"/>
<path class="pulse-2" fill="#FCFBFB" opacity="1.000000" stroke="none" 
	d="
M607.935425,269.941650 
	C612.339294,267.283783 616.748474,264.636383 621.549927,261.965515 
	C621.942200,261.942047 621.949280,261.968506 622.038452,262.317688 
	C617.406433,265.096588 612.685120,267.526306 607.963867,269.955994 
	C607.963867,269.955994 607.940796,269.952148 607.935425,269.941650 
z"/>
<path fill="#FCFBFB" opacity="1.000000" stroke="none" 
	d="
M1273.920288,1355.895508 
	C1270.656860,1358.052490 1267.243408,1360.029785 1263.426270,1362.012329 
	C1263.022705,1362.017578 1263.014526,1362.019043 1263.042969,1361.670044 
	C1266.538574,1359.332031 1270.005859,1357.343018 1273.473022,1355.354004 
	C1273.473022,1355.354004 1273.770264,1355.715820 1273.920288,1355.895508 
z"/>
<path fill="#FCFBFB" opacity="1.000000" stroke="none" 
	d="
M1223.908691,1384.881714 
	C1222.993530,1385.722778 1221.912842,1386.366699 1220.430542,1387.019165 
	C1220.028931,1387.027832 1220.004395,1387.006226 1219.993896,1386.662354 
	C1221.126953,1385.641846 1222.270386,1384.965088 1223.413818,1384.288330 
	C1223.523560,1384.420410 1223.633423,1384.552490 1223.908691,1384.881714 
z"/>
<path class="pulse-4" fill="#FCFBFB" opacity="1.000000" stroke="none" 
	d="
M1166.905273,1417.879639 
	C1165.995239,1418.723755 1164.914551,1419.367310 1163.444214,1420.032959 
	C1163.054565,1420.055176 1163.024292,1420.024780 1162.995605,1419.665771 
	C1164.109863,1418.629883 1165.252686,1417.953247 1166.395508,1417.276489 
	C1166.508545,1417.410645 1166.621582,1417.544922 1166.905273,1417.879639 
z"/>
<path fill="#FCFBFB" opacity="1.000000" stroke="none" 
	d="
M876.040710,1586.032959 
	C875.308533,1586.704102 874.564270,1587.357788 873.447327,1588.043823 
	C873.074585,1588.076172 873.060852,1588.050415 872.855042,1587.694092 
	C873.777893,1586.907104 874.906555,1586.476562 876.035217,1586.046143 
	C876.035217,1586.046143 876.028687,1586.015503 876.040710,1586.032959 
z"/>
<path class="pulse-3" fill="#FCFBFB" opacity="1.000000" stroke="none" 
	d="
M1220.040527,1387.039673 
	C1219.307373,1387.705200 1218.562744,1388.358765 1217.444824,1389.044922 
	C1217.071533,1389.077637 1216.755859,1388.698975 1216.864746,1388.312500 
	C1217.983765,1387.619507 1218.994141,1387.312866 1220.004395,1387.006226 
	C1220.004395,1387.006226 1220.028931,1387.027832 1220.040527,1387.039673 
z"/>
<path class="pulse-3" fill="#FCFBFB" opacity="1.000000" stroke="none" 
	d="
M1263.029297,1362.026123 
	C1262.295654,1362.693604 1261.555542,1363.352539 1260.440186,1364.038574 
	C1260.064941,1364.065918 1260.022461,1364.022339 1259.959229,1363.644775 
	C1260.935547,1362.851196 1261.975098,1362.435059 1263.014526,1362.019043 
	C1263.014526,1362.019043 1263.022705,1362.017578 1263.029297,1362.026123 
z"/>
<path class="pulse-4" fill="#FCFBFB" opacity="1.000000" stroke="none" 
	d="
M1320.016357,1329.014526 
	C1319.289185,1329.687500 1318.551636,1330.349243 1317.437378,1331.036255 
	C1317.060669,1331.061523 1317.023682,1331.023438 1316.977661,1330.651855 
	C1317.959717,1329.860718 1318.987671,1329.441162 1320.015747,1329.021606 
	C1320.015747,1329.021606 1320.006104,1329.003296 1320.016357,1329.014526 
z"/>
<path fill="#4DA4E0" opacity="1.000000" stroke="none" 
	d="
M708.015808,1681.729126 
	C695.286865,1674.555420 682.504822,1667.473999 669.840149,1660.188477 
	C643.589722,1645.087891 617.404785,1629.873535 591.178955,1614.730103 
	C589.749817,1613.904907 588.192322,1613.301880 586.351196,1612.793091 
	C584.920715,1611.954102 583.988037,1610.651001 582.724548,1609.918945 
	C521.123047,1574.235107 459.492157,1538.601929 397.870789,1502.952271 
	C395.570343,1501.621460 393.331970,1500.183350 391.123322,1498.362793 
	C391.466980,1497.634155 391.752014,1497.338013 392.374390,1496.951660 
	C481.161316,1445.795654 569.619507,1394.744873 658.052734,1343.651001 
	C674.451355,1334.176270 690.749634,1324.527710 707.324707,1314.980713 
	C707.555115,1315.001953 708.017822,1315.011108 708.034668,1315.249756 
	C708.051575,1315.488525 708.167542,1315.952637 708.110535,1316.421143 
	C708.040955,1438.502686 708.028381,1560.115967 708.015808,1681.729126 
z"/>
<path fill="#4DA4E0" opacity="1.000000" stroke="none" 
	d="
M73.777237,1314.674805 
	C73.521446,1313.235962 73.042023,1311.796997 73.041664,1310.358154 
	C73.012085,1190.214111 73.019623,1070.070068 73.028099,949.926086 
	C73.028122,949.594055 73.080757,949.262024 73.316963,948.433838 
	C73.525101,947.937744 73.686714,947.852173 73.970032,948.091614 
	C106.338539,966.907959 138.415924,985.498352 170.510422,1004.059143 
	C243.620392,1046.339844 316.738739,1088.606201 389.887939,1131.136108 
	C389.919403,1131.567139 389.916626,1131.740356 389.558228,1131.951904 
	C374.146576,1140.680420 359.081390,1149.354858 344.035950,1158.063354 
	C282.922882,1193.436279 221.809280,1228.808350 160.709488,1264.204224 
	C131.716309,1281.000610 102.753716,1297.849609 73.777237,1314.674805 
z"/>
<path class="pulse-2" fill="#723FA3" opacity="1.000000" stroke="none" 
	d="
M73.686714,947.852173 
	C73.686714,947.852173 73.525101,947.937744 73.445770,947.983459 
	C73.246780,946.875061 73.022354,945.720947 73.022354,944.566833 
	C73.022026,823.626099 73.038589,702.685364 73.501938,581.391357 
	C76.232170,582.361877 78.514641,583.685608 80.797035,585.009399 
	C150.292023,625.317200 219.776505,665.643066 289.286621,705.924744 
	C322.809540,725.351562 356.380798,744.694885 389.908234,764.176636 
	C389.886292,764.277283 389.909271,764.483276 389.921570,764.538940 
	C389.933868,764.594666 389.845398,764.668579 389.563171,764.876099 
	C377.474823,771.909973 365.668030,778.735229 353.862610,785.562805 
	C311.676239,809.961243 269.503326,834.382935 227.300491,858.752930 
	C187.401932,881.792358 147.455200,904.748474 107.566910,927.805664 
	C96.206757,934.372314 84.976532,941.163818 73.686714,947.852173 
z"/>
<path class="pulse-2" fill="#F2EE11" opacity="1.000000" stroke="none" 
	d="
M389.930176,764.075989 
	C356.380798,744.694885 322.809540,725.351562 289.286621,705.924744 
	C219.776505,665.643066 150.292023,625.317200 80.797035,585.009399 
	C78.514641,583.685608 76.232170,582.361877 73.626373,580.931885 
	C84.854279,573.963745 96.336105,566.981689 107.967766,560.258911 
	C201.108551,506.425568 294.277496,452.641052 387.439819,398.845032 
	C388.012970,398.514130 388.614014,398.231537 389.592468,398.366821 
	C389.988739,471.761414 390.004486,544.715576 389.996826,617.669739 
	C389.991730,666.471802 389.953552,715.273926 389.930176,764.075989 
z"/>
<path class="pulse-2" fill="#F2EE11" opacity="1.000000" stroke="none" 
	d="
M73.879303,1314.968262 
	C102.753716,1297.849609 131.716309,1281.000610 160.709488,1264.204224 
	C221.809280,1228.808350 282.922882,1193.436279 344.035950,1158.063354 
	C359.081390,1149.354858 374.146576,1140.680420 389.593079,1132.425171 
	C389.974274,1254.549805 389.964966,1376.239502 389.955658,1497.929199 
	C375.379059,1489.642456 360.751434,1481.443848 346.234131,1473.054443 
	C256.838562,1421.393921 167.467087,1369.691528 78.095398,1317.989746 
	C76.673752,1317.167358 75.350517,1316.174927 73.879303,1314.968262 
z"/>
<path fill="#723FA3" opacity="1.000000" stroke="none" 
	d="
M608.139343,270.290314 
	C612.685120,267.526306 617.406433,265.096588 622.046692,262.310333 
	C623.577698,261.380127 625.323242,261.038300 626.781860,260.198364 
	C652.897034,245.160309 678.977539,230.061920 705.734985,215.179092 
	C706.603027,217.507751 706.974731,219.633774 706.975220,221.759888 
	C707.003174,338.407196 706.995667,455.054535 707.034729,571.701843 
	C707.035400,573.793762 707.555542,575.885620 707.859985,578.292358 
	C707.857239,579.026672 707.827759,579.446228 707.590210,579.900513 
	C707.382080,579.935364 706.962952,579.996826 706.648926,579.855713 
	C705.166992,579.076050 703.985657,578.460632 702.833130,577.795349 
	C662.061951,554.260925 621.293274,530.721985 580.524597,507.183228 
	C540.188965,483.894592 499.868134,460.580261 459.512421,437.326477 
	C436.744171,424.206940 413.918671,411.186829 391.050232,397.895691 
	C390.981537,397.669434 390.795807,397.234558 390.795807,397.234558 
	C400.743225,391.360687 410.695496,385.494995 420.632996,379.604462 
	C422.190704,378.681152 423.681641,377.645233 425.084778,376.307861 
	C426.138519,375.657928 427.454468,375.610382 428.462402,375.028931 
	C457.966248,358.010223 487.440399,340.940033 516.910095,323.862152 
	C517.472412,323.536255 517.923706,323.018738 518.195923,322.274048 
	C519.098328,321.722534 520.389587,321.761597 521.342102,321.212830 
	C549.979492,304.714325 578.584106,288.158783 607.186523,271.599762 
	C607.609131,271.355103 607.940735,270.953156 608.139343,270.290314 
z"/>
<path fill="#F0587F" opacity="1.000000" stroke="none" 
	d="
M390.120148,1498.020874 
	C389.964966,1376.239502 389.974274,1254.549805 389.948730,1132.386719 
	C389.916626,1131.740356 389.919403,1131.567139 389.929657,1131.146606 
	C389.937103,1130.899414 390.003143,1130.950928 390.208984,1130.970947 
	C390.414856,1130.991089 390.817047,1131.087891 390.879150,1131.349365 
	C391.000610,1131.779785 391.059967,1131.948730 391.083435,1132.577759 
	C391.031708,1252.817383 391.011902,1372.597046 391.043030,1492.376709 
	C391.043427,1493.931885 391.691315,1495.486816 392.037018,1497.041870 
	C391.752014,1497.338013 391.466980,1497.634155 390.908630,1498.090088 
	C390.635284,1498.249878 390.284637,1498.112549 390.120148,1498.020874 
z"/>
<path fill="#F0587F" opacity="1.000000" stroke="none" 
	d="
M390.605347,397.257599 
	C390.795807,397.234558 390.981537,397.669434 391.008942,398.351196 
	C391.024231,518.810364 391.008179,638.587830 391.042633,758.365295 
	C391.043091,759.921448 391.685760,761.477539 391.828308,763.290894 
	C391.055054,763.859924 390.482178,764.171631 389.909271,764.483276 
	C389.909271,764.483276 389.886292,764.277283 389.908203,764.176636 
	C389.953552,715.273926 389.991730,666.471802 389.996826,617.669739 
	C390.004486,544.715576 389.988739,471.761414 389.947754,398.329620 
	C390.004486,397.594971 390.171936,397.404510 390.605347,397.257599 
z"/>
<path class="pulse-2" fill="#4DA4E0" opacity="1.000000" stroke="none" 
	d="
M1342.409668,580.753662 
	C1342.601562,582.210571 1342.961426,583.667480 1342.961792,585.124451 
	C1342.987427,704.574097 1342.985474,824.023743 1342.978760,943.473389 
	C1342.978760,944.470581 1342.887085,945.467834 1342.603149,946.887756 
	C1342.368164,947.310486 1342.343994,947.325378 1341.989746,947.170166 
	C1318.219604,933.520386 1294.794800,920.041077 1271.389526,906.527954 
	C1232.034424,883.806091 1192.693237,861.059998 1153.343140,838.329468 
	C1130.349854,825.047485 1107.359985,811.759399 1084.350708,798.504883 
	C1064.947144,787.327515 1045.518066,776.194641 1026.040039,764.777710 
	C1025.986816,764.332825 1025.993896,764.152283 1026.028442,763.995117 
	C1026.055908,764.018555 1026.103149,763.963867 1026.427612,763.859985 
	C1055.495972,747.083008 1084.236206,730.403564 1112.984619,713.738159 
	C1189.457886,669.406799 1265.934448,625.081421 1342.409668,580.753662 
z"/>
<path fill="#723FA3" opacity="1.000000" stroke="none" 
	d="
M1342.343994,947.325317 
	C1342.343994,947.325378 1342.368164,947.310486 1342.367432,947.325073 
	C1342.572021,949.137085 1342.956909,950.934448 1342.957275,952.731873 
	C1342.985718,1071.776733 1342.984009,1190.821655 1342.973389,1309.866455 
	C1342.973267,1311.356567 1342.823364,1312.846802 1342.206055,1314.370850 
	C1295.596069,1287.691406 1249.530518,1260.966187 1203.448853,1234.268433 
	C1160.967651,1209.656616 1118.483521,1185.049683 1075.971558,1160.490967 
	C1059.416138,1150.926880 1042.781250,1141.500366 1026.131104,1132.009277 
	C1026.079712,1132.007568 1025.978760,1132.025879 1026.090576,1131.793945 
	C1026.481201,1131.139404 1026.759888,1130.716553 1027.362915,1130.145264 
	C1078.742920,1100.473877 1129.799072,1070.951782 1180.854370,1041.428223 
	C1231.498535,1012.142456 1282.147705,982.865051 1332.772217,953.545349 
	C1336.060547,951.640869 1339.157837,949.406372 1342.343994,947.325317 
z"/>
<path class="pulse-2" fill="#4DA4E0" opacity="1.000000" stroke="none" 
	d="
M707.798340,579.865723 
	C707.827759,579.446228 707.857239,579.026672 707.921509,577.829956 
	C707.967407,456.052307 707.978577,335.051788 707.989746,214.051300 
	C713.100342,216.755142 718.306763,219.293350 723.307373,222.187256 
	C821.859741,279.220581 920.389099,336.293793 1018.916077,393.370941 
	C1020.926453,394.535583 1022.854126,395.843140 1024.919189,397.430511 
	C1025.017822,397.777039 1024.928101,398.076904 1024.594727,398.134644 
	C968.419617,430.396118 912.579285,462.602112 856.735901,494.802826 
	C827.508362,511.656128 798.284424,528.515625 769.041992,545.343018 
	C748.761536,557.013306 728.452209,568.633606 708.082642,580.159546 
	C708.009460,580.042786 707.798340,579.865723 707.798340,579.865723 
z"/>
<path class="pulse-4" fill="#EE217F" opacity="1.000000" stroke="none" 
	d="
M1026.182617,1132.011108 
	C1042.781250,1141.500366 1059.416138,1150.926880 1075.971558,1160.490967 
	C1118.483521,1185.049683 1160.967651,1209.656616 1203.448853,1234.268433 
	C1249.530518,1260.966187 1295.596069,1287.691406 1341.903809,1314.653198 
	C1334.794556,1319.377441 1327.450073,1323.853271 1320.060791,1328.675415 
	C1318.987671,1329.441162 1317.959717,1329.860718 1316.959839,1330.632080 
	C1315.793091,1331.341431 1314.474243,1331.483521 1313.422241,1332.089233 
	C1300.247314,1339.674561 1287.111084,1347.326904 1273.718994,1355.158081 
	C1270.005859,1357.343018 1266.538574,1359.332031 1263.042969,1361.670044 
	C1261.975098,1362.435059 1260.935547,1362.851196 1259.939453,1363.621582 
	C1258.796875,1364.322876 1257.485718,1364.451782 1256.444336,1365.050293 
	C1245.583740,1371.291382 1234.766357,1377.608032 1223.675537,1384.096069 
	C1222.270386,1384.965088 1221.126953,1385.641846 1219.993896,1386.662354 
	C1218.994141,1387.312866 1217.983765,1387.619507 1216.708252,1388.121948 
	C1199.933228,1397.840088 1183.423462,1407.362427 1166.654541,1417.080566 
	C1165.252686,1417.953247 1164.109863,1418.629883 1162.981201,1419.649902 
	C1159.206543,1421.882690 1155.342651,1423.636963 1151.646118,1425.692261 
	C1145.691162,1429.003174 1139.846680,1432.513062 1133.701416,1436.133057 
	C1128.927490,1438.964233 1124.407959,1441.601196 1119.925293,1444.593018 
	C1118.194580,1445.633911 1116.301880,1446.103149 1114.677734,1447.038452 
	C1085.328491,1463.941284 1056.011597,1480.900269 1026.347656,1497.428955 
	C1026.005127,1376.838135 1026.001831,1256.665771 1026.007568,1136.493286 
	C1026.007568,1134.999268 1026.121704,1133.505127 1026.182617,1132.011108 
z"/>
<path class="pulse-4" fill="#EE217F" opacity="1.000000" stroke="none" 
	d="
M1342.202393,580.471741 
	C1265.934448,625.081421 1189.457886,669.406799 1112.984619,713.738159 
	C1084.236206,730.403564 1055.495972,747.083008 1026.391724,763.398438 
	C1026.014648,641.344116 1025.997803,519.647461 1025.981079,397.950867 
	C1038.564697,405.046356 1051.210205,412.034698 1063.722046,419.254425 
	C1154.950806,471.896332 1246.153076,524.583679 1337.358154,577.266357 
	C1338.939209,578.179565 1340.451050,579.212646 1342.202393,580.471741 
z"/>
<path class="pulse-1" fill="#F5DE4F" opacity="1.000000" stroke="none" 
	d="
M1025.807129,397.851318 
	C1025.997803,519.647461 1026.014648,641.344116 1026.067261,763.502319 
	C1026.103149,763.963867 1026.055908,764.018555 1025.785400,764.023682 
	C1025.514771,764.028748 1025.032349,764.111206 1024.777222,764.003296 
	C1024.283813,763.625488 1024.045410,763.355591 1024.144775,762.818604 
	C1024.655029,760.586060 1024.977417,758.620789 1024.978271,756.655396 
	C1025.004639,693.063232 1025.009155,629.471008 1024.997070,565.878845 
	C1024.986572,509.944855 1024.952148,454.010895 1024.928101,398.076904 
	C1024.928101,398.076904 1025.017822,397.777039 1025.143921,397.679565 
	C1025.270020,397.582062 1025.633179,397.751770 1025.807129,397.851318 
z"/>
<path class="pulse-4" fill="#7A57AF" opacity="1.000000" stroke="none" 
	d="
M707.671997,213.994446 
	C707.978577,335.051788 707.967407,456.052307 707.894775,577.515137 
	C707.555542,575.885620 707.035400,573.793762 707.034729,571.701843 
	C706.995667,455.054535 707.003174,338.407196 706.975220,221.759888 
	C706.974731,219.633774 706.603027,217.507751 706.069092,215.096161 
	C706.273804,214.519623 706.813965,214.228607 707.671997,213.994446 
z"/>
<path class="pulse-3" fill="#723FA3" opacity="1.000000" stroke="none" 
	d="
M708.380371,1681.744019 
	C708.028381,1560.115967 708.040955,1438.502686 708.468018,1316.410278 
	C710.077881,1316.470459 711.330383,1316.910889 712.460510,1317.563354 
	C789.313843,1361.926270 866.147583,1406.323120 943.006836,1450.675781 
	C969.914673,1466.203369 996.882935,1481.626343 1024.000244,1497.365967 
	C1024.550293,1497.847778 1024.923584,1498.060669 1025.296997,1498.273438 
	C1011.436340,1506.432007 997.592102,1514.618408 983.710815,1522.741577 
	C966.808655,1532.632812 949.875488,1542.470825 932.994995,1552.689209 
	C932.412598,1553.075928 931.664612,1552.888306 931.187256,1553.166016 
	C917.378601,1561.194702 903.597107,1569.270020 889.922607,1577.691772 
	C885.327515,1580.474976 880.620972,1582.904297 875.974854,1585.689941 
	C874.906555,1586.476562 873.777893,1586.907104 872.840820,1587.690918 
	C872.329529,1588.027832 871.466187,1587.734741 870.947327,1588.035522 
	C858.177490,1595.442627 845.444092,1602.912598 832.870361,1610.707520 
	C832.452515,1611.016235 831.729431,1610.748779 831.304504,1610.995483 
	C812.740845,1621.761719 794.203613,1632.573486 775.849365,1643.711548 
	C775.315063,1644.062012 774.443359,1643.819702 773.895813,1644.136719 
	C752.543396,1656.504883 731.220398,1668.924072 709.962341,1681.693481 
	C709.602356,1681.953247 709.173645,1681.856079 708.380371,1681.744019 
z"/>
<path fill="#F5DE4F" opacity="1.000000" stroke="none" 
	d="
M1025.481934,1498.209717 
	C1024.923584,1498.060669 1024.550293,1497.847778 1024.336914,1497.094238 
	C1024.664551,1495.251099 1024.979126,1493.948608 1024.979248,1492.645996 
	C1024.988403,1372.489136 1024.973267,1252.332397 1025.210205,1132.106689 
	C1025.633423,1132.033813 1025.806030,1132.029907 1025.978760,1132.025879 
	C1025.978760,1132.025879 1026.079712,1132.007568 1026.131104,1132.009277 
	C1026.121704,1133.505127 1026.007568,1134.999268 1026.007568,1136.493286 
	C1026.001831,1256.665771 1026.005127,1376.838135 1026.002441,1497.473145 
	C1025.997192,1497.935669 1025.666992,1498.145874 1025.481934,1498.209717 
z"/>
<path class="pulse-1" fill="#F2EE11" opacity="1.000000" stroke="none" 
	d="
M1024.959839,1132.175537 
	C1024.973267,1252.332397 1024.988403,1372.489136 1024.979248,1492.645996 
	C1024.979126,1493.948608 1024.664551,1495.251099 1024.160278,1496.825439 
	C996.882935,1481.626343 969.914673,1466.203369 943.006836,1450.675781 
	C866.147583,1406.323120 789.313843,1361.926270 712.460510,1317.563354 
	C711.330383,1316.910889 710.077881,1316.470459 708.525024,1315.941895 
	C708.167542,1315.952637 708.051575,1315.488525 708.026001,1315.244873 
	C708.000366,1315.001343 708.011230,1315.016724 708.334595,1314.896240 
	C745.312561,1293.539673 781.958069,1272.287598 818.624268,1251.071289 
	C868.102173,1222.441528 917.587280,1193.824097 967.087402,1165.232666 
	C986.377686,1154.090698 1005.717163,1143.033813 1024.973633,1131.984375 
	C1024.913208,1132.030640 1024.959839,1132.175537 1024.959839,1132.175537 
z"/>
<path class="pulse-2" fill="#EE217F" opacity="1.000000" stroke="none" 
	d="
M392.374390,1496.951660 
	C391.691315,1495.486816 391.043427,1493.931885 391.043030,1492.376709 
	C391.011902,1372.597046 391.031708,1252.817383 391.397827,1132.677246 
	C399.676117,1136.884644 407.610901,1141.440674 415.530975,1146.022217 
	C456.859406,1169.929443 498.180878,1193.848633 539.511108,1217.752563 
	C581.273621,1241.906616 623.030212,1266.071045 664.817932,1290.181396 
	C678.782043,1298.238281 692.833679,1306.143555 706.895813,1314.332031 
	C706.946289,1314.545776 707.094238,1314.959473 707.094238,1314.959473 
	C690.749634,1324.527710 674.451355,1334.176270 658.052734,1343.651001 
	C569.619507,1394.744873 481.161316,1445.795654 392.374390,1496.951660 
z"/>
<path class="pulse-3" fill="#7A57AF" opacity="1.000000" stroke="none" 
	d="
M707.324707,1314.980713 
	C707.094238,1314.959473 706.946289,1314.545776 706.950562,1313.856445 
	C706.969849,1193.190308 706.988159,1073.213623 706.960205,953.236877 
	C706.959839,951.835632 706.360168,950.434509 706.181030,948.808105 
	C706.610596,948.386414 706.899475,948.189880 707.394409,947.962646 
	C707.600464,947.931885 708.015747,947.897217 708.028687,947.920715 
	C708.041626,947.944214 708.049500,947.996460 708.031250,948.465332 
	C708.012451,1070.961670 708.011841,1192.989258 708.011230,1315.016724 
	C708.011230,1315.016724 708.000366,1315.001343 708.009094,1315.006226 
	C708.017822,1315.011108 707.555115,1315.001953 707.324707,1314.980713 
z"/>
<path fill="#EE217F" opacity="1.000000" stroke="none" 
	d="
M73.970032,948.091614 
	C84.976532,941.163818 96.206757,934.372314 107.566910,927.805664 
	C147.455200,904.748474 187.401932,881.792358 227.300491,858.752930 
	C269.503326,834.382935 311.676239,809.961243 353.862610,785.562805 
	C365.668030,778.735229 377.474823,771.909973 389.622864,764.932739 
	C389.964722,764.781921 390.040344,764.926880 390.023987,765.399170 
	C390.006104,887.564636 390.004608,1009.257812 390.003143,1130.950928 
	C390.003143,1130.950928 389.937103,1130.899414 389.895386,1130.888916 
	C316.738739,1088.606201 243.620392,1046.339844 170.510422,1004.059143 
	C138.415924,985.498352 106.338539,966.907959 73.970032,948.091614 
z"/>
<path fill="#4DA4E0" opacity="1.000000" stroke="none" 
	d="
M708.015747,947.897217 
	C708.015747,947.897217 707.600464,947.931885 707.238892,947.641663 
	C696.281189,941.216858 685.693665,935.067505 675.087646,928.950256 
	C608.671143,890.643188 542.260437,852.325989 475.826477,814.049316 
	C447.934509,797.979065 419.990295,781.999451 391.892273,765.729736 
	C391.156555,765.296204 390.598450,765.111572 390.040344,764.926880 
	C390.040344,764.926880 389.964722,764.781921 389.905060,764.725220 
	C389.845398,764.668579 389.933868,764.594666 389.921570,764.538940 
	C390.482178,764.171631 391.055054,763.859924 392.166016,763.205322 
	C497.508575,702.173096 602.312988,641.483643 707.392456,580.828735 
	C707.851562,580.847412 708.035645,580.831421 708.210449,580.828491 
	C708.201172,580.841553 708.222107,580.860474 708.141968,581.333679 
	C708.046387,703.836975 708.031067,825.867126 708.015747,947.897217 
z"/>
<path fill="#EE217F" opacity="1.000000" stroke="none" 
	d="
M707.117432,580.794189 
	C602.312988,641.483643 497.508575,702.173096 392.366394,762.948059 
	C391.685760,761.477539 391.043091,759.921448 391.042633,758.365295 
	C391.008179,638.587830 391.024231,518.810364 391.077637,398.577423 
	C413.918671,411.186829 436.744171,424.206940 459.512421,437.326477 
	C499.868134,460.580261 540.188965,483.894592 580.524597,507.183228 
	C621.293274,530.721985 662.061951,554.260925 702.833130,577.795349 
	C703.985657,578.460632 705.166992,579.076050 706.678589,580.057007 
	C707.022217,580.399292 707.117432,580.794189 707.117432,580.794189 
z"/>
<path class="pulse-1" fill="#7A57AF" opacity="1.000000" stroke="none" 
	d="
M707.392456,580.828735 
	C707.117432,580.794189 707.022217,580.399292 706.992554,580.198059 
	C706.962952,579.996826 707.382080,579.935364 707.590210,579.900513 
	C707.798340,579.865723 708.009460,580.042786 708.127319,580.290833 
	C708.245178,580.538879 708.219788,580.815491 708.219788,580.815491 
	C708.035645,580.831421 707.851562,580.847412 707.392456,580.828735 
z"/>
<path class="pulse-3" fill="#723FA3" opacity="1.000000" stroke="none" 
	d="
M706.040283,949.033325 
	C706.360168,950.434509 706.959839,951.835632 706.960205,953.236877 
	C706.988159,1073.213623 706.969849,1193.190308 706.900024,1313.642578 
	C692.833679,1306.143555 678.782043,1298.238281 664.817932,1290.181396 
	C623.030212,1266.071045 581.273621,1241.906616 539.511108,1217.752563 
	C498.180878,1193.848633 456.859406,1169.929443 415.530975,1146.022217 
	C407.610901,1141.440674 399.676117,1136.884644 391.433716,1132.217285 
	C391.059967,1131.948730 391.000610,1131.779785 391.010376,1131.149170 
	C391.079529,1130.687622 391.191620,1130.226440 391.530579,1130.150879 
	C424.974213,1111.000244 458.091156,1091.946289 491.180603,1072.844604 
	C539.297546,1045.068115 587.379578,1017.231262 635.506653,989.472473 
	C658.982788,975.931824 682.526917,962.509338 706.040283,949.033325 
z"/>
<path fill="#F4EC30" opacity="1.000000" stroke="none" 
	d="
M391.191620,1130.226440 
	C391.191620,1130.226440 391.079529,1130.687622 390.948303,1130.887695 
	C390.817047,1131.087891 390.414856,1130.991089 390.208984,1130.970947 
	C390.004608,1009.257812 390.006104,887.564636 390.023987,765.399231 
	C390.598450,765.111572 391.156555,765.296204 391.582214,766.016357 
	C391.299835,768.357910 391.019012,770.164062 391.018677,771.970154 
	C390.997986,889.560120 390.999115,1007.150024 391.007935,1124.739990 
	C391.008087,1126.568848 391.127747,1128.397583 391.191620,1130.226440 
z"/>
<path class="pulse-4" fill="#F2EE11" opacity="1.000000" stroke="none" 
	d="
M1341.989746,947.170105 
	C1339.157837,949.406372 1336.060547,951.640869 1332.772217,953.545349 
	C1282.147705,982.865051 1231.498535,1012.142456 1180.854370,1041.428223 
	C1129.799072,1070.951782 1078.742920,1100.473877 1027.036987,1129.844849 
	C1026.257935,1127.546021 1026.016357,1125.398926 1026.016113,1123.251831 
	C1025.997925,1006.012634 1025.999512,888.773376 1026.004150,771.534180 
	C1026.004272,769.370117 1026.066772,767.206116 1026.100220,765.042053 
	C1045.518066,776.194641 1064.947144,787.327515 1084.350708,798.504883 
	C1107.359985,811.759399 1130.349854,825.047485 1153.343140,838.329468 
	C1192.693237,861.059998 1232.034424,883.806091 1271.389526,906.527954 
	C1294.794800,920.041077 1318.219604,933.520386 1341.989746,947.170105 
z"/>
<path fill="#F39179" opacity="1.000000" stroke="none" 
	d="
M1026.040039,764.777710 
	C1026.066772,767.206116 1026.004272,769.370117 1026.004150,771.534180 
	C1025.999512,888.773376 1025.997925,1006.012634 1026.016113,1123.251831 
	C1026.016357,1125.398926 1026.257935,1127.546021 1026.712769,1129.993408 
	C1026.759888,1130.716553 1026.481201,1131.139404 1026.090576,1131.793945 
	C1025.806030,1132.029907 1025.633423,1132.033813 1025.210205,1132.106689 
	C1024.959839,1132.175537 1024.913208,1132.030640 1024.966553,1131.698120 
	C1024.918335,1130.997681 1024.816772,1130.629761 1024.819214,1129.784668 
	C1024.948730,1128.309082 1024.996704,1127.310913 1024.996826,1126.312622 
	C1025.000122,1007.440186 1025.000854,888.567688 1024.990845,769.695251 
	C1024.990723,768.201660 1024.852417,766.708130 1024.862549,764.943420 
	C1024.975098,764.485291 1025.003662,764.298279 1025.032349,764.111206 
	C1025.032349,764.111206 1025.514771,764.028748 1025.757812,764.000244 
	C1025.993896,764.152283 1025.986816,764.332825 1026.040039,764.777710 
z"/>
<path class="pulse-4" fill="#F2EE11" opacity="1.000000" stroke="none" 
	d="
M708.210449,580.828491 
	C708.219788,580.815491 708.245178,580.538879 708.200500,580.407593 
	C728.452209,568.633606 748.761536,557.013306 769.041992,545.343018 
	C798.284424,528.515625 827.508362,511.656128 856.735901,494.802826 
	C912.579285,462.602112 968.419617,430.396118 1024.594727,398.134644 
	C1024.952148,454.010895 1024.986572,509.944855 1024.997070,565.878845 
	C1025.009155,629.471008 1025.004639,693.063232 1024.978271,756.655396 
	C1024.977417,758.620789 1024.655029,760.586060 1023.813782,762.736084 
	C1006.206055,753.122681 989.262634,743.332336 972.329041,733.525146 
	C908.337463,696.463623 844.361145,659.375854 780.353333,622.342529 
	C756.345886,608.452454 732.267883,594.684265 708.222107,580.860474 
	C708.222107,580.860474 708.201172,580.841553 708.210449,580.828491 
z"/>
<path class="pulse-4" fill="#723FA3" opacity="1.000000" stroke="none" 
	d="
M708.141968,581.333679 
	C732.267883,594.684265 756.345886,608.452454 780.353333,622.342529 
	C844.361145,659.375854 908.337463,696.463623 972.329041,733.525146 
	C989.262634,743.332336 1006.206055,753.122681 1023.476074,763.003235 
	C1024.045410,763.355591 1024.283813,763.625488 1024.777222,764.003296 
	C1025.003662,764.298279 1024.975098,764.485291 1024.567139,765.049316 
	C1000.111145,779.307617 976.031311,793.183289 951.958557,807.071228 
	C882.764954,846.990417 813.565552,886.899597 744.390747,926.851135 
	C732.445251,933.750183 720.608582,940.837524 708.554382,947.880615 
	C708.387024,947.923218 708.049500,947.996460 708.049500,947.996460 
	C708.049500,947.996460 708.041626,947.944214 708.028687,947.920715 
	C708.031067,825.867126 708.046387,703.836975 708.141968,581.333679 
z"/>
<path class="pulse-1" fill="#4DA4E0" opacity="1.000000" stroke="none" 
	d="
M708.031250,948.465332 
	C708.049500,947.996460 708.387024,947.923218 708.850464,948.108276 
	C710.588684,949.074646 711.846436,949.885437 713.140808,950.633057 
	C796.366516,998.709045 879.585999,1046.796021 962.830505,1094.839355 
	C983.416504,1106.720215 1004.084839,1118.458252 1024.715332,1130.261841 
	C1024.816772,1130.629761 1024.918335,1130.997681 1025.027100,1131.651855 
	C1005.717163,1143.033813 986.377686,1154.090698 967.087402,1165.232666 
	C917.587280,1193.824097 868.102173,1222.441528 818.624268,1251.071289 
	C781.958069,1272.287598 745.312561,1293.539673 708.334595,1314.896240 
	C708.011841,1192.989258 708.012451,1070.961670 708.031250,948.465332 
z"/>
<path class="pulse-4" fill="#F2EE11" opacity="1.000000" stroke="none" 
	d="
M391.530579,1130.150879 
	C391.127747,1128.397583 391.008087,1126.568848 391.007935,1124.739990 
	C390.999115,1007.150024 390.997986,889.560120 391.018677,771.970154 
	C391.019012,770.164062 391.299835,768.357910 391.759827,766.265198 
	C419.990295,781.999451 447.934509,797.979065 475.826477,814.049316 
	C542.260437,852.325989 608.671143,890.643188 675.087646,928.950256 
	C685.693665,935.067505 696.281189,941.216858 707.032837,947.672363 
	C706.899475,948.189880 706.610596,948.386414 706.181030,948.808105 
	C682.526917,962.509338 658.982788,975.931824 635.506653,989.472473 
	C587.379578,1017.231262 539.297546,1045.068115 491.180603,1072.844604 
	C458.091156,1091.946289 424.974213,1111.000244 391.530579,1130.150879 
z"/>
<path class="pulse-1" fill="#EE217F" opacity="1.000000" stroke="none" 
	d="
M1024.819214,1129.784668 
	C1004.084839,1118.458252 983.416504,1106.720215 962.830505,1094.839355 
	C879.585999,1046.796021 796.366516,998.709045 713.140808,950.633057 
	C711.846436,949.885437 710.588684,949.074646 709.017822,948.065613 
	C720.608582,940.837524 732.445251,933.750183 744.390747,926.851135 
	C813.565552,886.899597 882.764954,846.990417 951.958557,807.071228 
	C976.031311,793.183289 1000.111145,779.307617 1024.483154,765.320435 
	C1024.852417,766.708130 1024.990723,768.201660 1024.990845,769.695251 
	C1025.000854,888.567688 1025.000122,1007.440186 1024.996826,1126.312622 
	C1024.996704,1127.310913 1024.948730,1128.309082 1024.819214,1129.784668 
z"/>
</svg>