<?xml version="1.0" encoding="UTF-8" standalone="no"?>
<!-- Generator: Adobe Illustrator 16.0.0, SVG Export Plug-In . SVG Version: 6.00 Build 0)  -->

<svg
   version="1.1"
   id="Capa_1"
   x="0px"
   y="0px"
   width="283.46px"
   height="283.46px"
   viewBox="0 0 283.46 283.46"
   enable-background="new 0 0 283.46 283.46"
   xml:space="preserve"
   xmlns="http://www.w3.org/2000/svg"
   xmlns:svg="http://www.w3.org/2000/svg"><defs
   id="defs52" />
<g
   id="g52">
	<polygon
   fill="none"
   points="26.734,141.711 26.701,141.729 55.451,157.852  "
   id="polygon1" />
	<polygon
   fill="none"
   points="84.234,173.995 84.201,174.01 112.949,190.133  "
   id="polygon2" />
	<polygon
   fill="none"
   points="56.152,125.177 84.201,109.448 84.17,109.43  "
   id="polygon3" />
	<polygon
   fill="none"
   points="141.794,141.711 141.761,141.729 170.509,157.852  "
   id="polygon4" />
	<polygon
   fill="none"
   points="84.23,109.431 84.201,109.448 110.841,124.386  "
   id="polygon5" />
	<polygon
   fill="none"
   points="55.451,190.133 84.201,174.01 84.168,173.995  "
   id="polygon6" />
	<polygon
   fill="none"
   points="141.794,77.146 141.761,77.166 171.209,93.684  "
   id="polygon7" />
	<polygon
   fill="none"
   points="228.005,190.133 199.29,173.995 199.259,174.01  "
   id="polygon8" />
	<polygon
   fill="none"
   points="227.311,125.177 199.29,109.43 199.259,109.448  "
   id="polygon9" />
	<polygon
   fill="none"
   points="171.209,125.177 199.259,109.448 199.228,109.43  "
   id="polygon10" />
	<polygon
   fill="none"
   points="170.509,190.133 199.259,174.01 199.228,173.995  "
   id="polygon11" />
	<polygon
   fill="none"
   points="228.005,157.852 256.759,141.729 256.727,141.711  "
   id="polygon12" />
	<polygon
   fill="none"
   points="141.794,206.276 141.761,206.294 171.209,222.812  "
   id="polygon13" />
	<polygon
   fill="#EE217F"
   points="227.311,93.684 256.759,77.129 199.259,44.882 199.259,109.414  "
   id="polygon14" />
	<polygon
   fill="#EE217F"
   points="199.29,109.43 199.259,109.414 199.259,109.448  "
   id="polygon15" />
	<polygon
   fill="#4DA4E0"
   points="256.759,141.729 256.759,141.691 256.727,141.711  "
   id="polygon16" />
	<polygon
   fill="#4DA4E0"
   points="199.259,109.414 199.29,109.43 227.311,125.177 256.759,141.691 256.759,77.166 227.311,93.684     "
   id="polygon17" />
	<polygon
   fill="#F2EE11"
   points="199.29,173.995 199.259,173.976 199.259,174.01  "
   id="polygon18" />
	<polygon
   fill="#F2EE11"
   points="199.259,109.448 199.259,173.976 228.005,157.852 256.727,141.711 256.759,141.691    227.311,125.177  "
   id="polygon19" />
	<polygon
   fill="#723FA3"
   points="256.759,206.294 256.759,206.257 256.727,206.276  "
   id="polygon20" />
	<polygon
   fill="#723FA3"
   points="199.259,173.976 199.29,173.995 228.005,190.133 256.759,206.257 256.759,141.729 228.005,157.852     "
   id="polygon21" />
	<polygon
   fill="#EE217F"
   points="199.259,174.01 199.259,238.542 199.259,238.578 256.727,206.276 256.759,206.257 228.005,190.133     "
   id="polygon22" />
	<polygon
   fill="#F2EE11"
   points="199.259,109.448 199.259,109.414 199.228,109.43  "
   id="polygon23" />
	<polygon
   fill="#F2EE11"
   points="171.209,93.684 199.259,109.414 199.259,44.882 170.509,61.005 141.794,77.146  "
   id="polygon24" />
	<polygon
   fill="#723FA3"
   points="199.228,109.43 199.259,109.414 171.209,93.684 141.761,77.166 141.761,141.691 171.209,125.177     "
   id="polygon25" />
	<polygon
   fill="#723FA3"
   points="141.761,141.691 141.761,141.729 141.794,141.711  "
   id="polygon26" />
	<polygon
   fill="#EE217F"
   points="199.259,174.01 199.259,173.976 199.228,173.995  "
   id="polygon27" />
	<polygon
   fill="#EE217F"
   points="170.509,157.852 199.259,173.976 199.259,109.448 171.209,125.177 141.761,141.691    141.794,141.711  "
   id="polygon28" />
	<polygon
   fill="#4DA4E0"
   points="141.761,206.257 141.761,206.294 141.794,206.276  "
   id="polygon29" />
	<polygon
   fill="#4DA4E0"
   points="199.228,173.995 199.259,173.976 170.509,157.852 141.761,141.729 141.761,206.257    170.509,190.133  "
   id="polygon30" />
	<polygon
   fill="#F2EE11"
   points="199.228,238.557 199.259,238.578 199.259,238.542  "
   id="polygon31" />
	<polygon
   fill="#F2EE11"
   points="171.209,222.812 199.259,238.542 199.259,174.01 170.509,190.133 141.761,206.257 141.794,206.276     "
   id="polygon32" />
	<polygon
   fill="#723FA3"
   points="171.209,222.812 141.761,206.294 141.761,270.859 199.228,238.557 199.259,238.542  "
   id="polygon33" />
	<polygon
   fill="#4DA4E0"
   points="141.695,270.859 141.695,206.294 113.65,222.02 84.23,238.563  "
   id="polygon34" />
	<polygon
   fill="#EE217F"
   points="84.201,174.01 84.201,238.578 84.23,238.563 113.65,222.02 141.667,206.276 112.949,190.133  "
   id="polygon35" />
	<polygon
   fill="#723FA3"
   points="112.949,190.133 141.667,206.276 141.698,206.294 141.698,141.729 112.949,157.852 84.234,173.995     "
   id="polygon36" />
	<polygon
   fill="#F2EE11"
   points="141.698,141.691 141.695,141.69 141.695,141.693  "
   id="polygon37" />
	<polygon
   fill="#F2EE11"
   points="84.201,109.448 84.201,173.976 84.201,174.01 84.234,173.995 112.949,157.852 141.665,141.712    110.841,124.386  "
   id="polygon38" />
	<polygon
   fill="#4DA4E0"
   points="110.841,124.386 141.665,141.712 141.695,141.729 141.695,141.693 141.695,141.69 141.695,77.166    113.65,92.895 84.23,109.431  "
   id="polygon39" />
	<polygon
   fill="#4DA4E0"
   points="170.509,61.005 199.259,44.846 141.761,12.601 141.761,77.166 141.794,77.146  "
   id="polygon40" />
	<polygon
   fill="#723FA3"
   points="112.949,61.005 141.698,77.129 141.698,12.601 84.201,44.846  "
   id="polygon41" />
	<polygon
   fill="#723FA3"
   points="141.698,77.166 141.698,77.129 141.667,77.146  "
   id="polygon42" />
	<polygon
   fill="#EE217F"
   points="84.201,44.882 84.201,109.414 84.201,109.448 84.23,109.431 113.65,92.895 141.667,77.146    141.698,77.129 112.949,61.005  "
   id="polygon43" />
	<polygon
   fill="#F2EE11"
   points="84.201,109.448 84.201,109.414 84.17,109.43  "
   id="polygon44" />
	<polygon
   fill="#F2EE11"
   points="84.201,44.882 26.701,77.129 56.152,93.684 84.201,109.414  "
   id="polygon45" />
	<polygon
   fill="#723FA3"
   points="26.701,141.691 26.701,141.729 26.734,141.711  "
   id="polygon46" />
	<polygon
   fill="#723FA3"
   points="84.17,109.43 84.201,109.414 56.152,93.684 26.701,77.166 26.701,141.691 56.152,125.177  "
   id="polygon47" />
	<polygon
   fill="#EE217F"
   points="55.451,157.852 84.201,173.976 84.201,109.448 56.152,125.177 26.701,141.691 26.734,141.711  "
   id="polygon48" />
	<polygon
   fill="#EE217F"
   points="84.201,174.01 84.201,173.976 84.168,173.995  "
   id="polygon49" />
	<polygon
   fill="#4DA4E0"
   points="84.168,173.995 84.201,173.976 55.451,157.852 26.701,141.729 26.701,206.257 55.451,190.133  "
   id="polygon50" />
	<polygon
   fill="#4DA4E0"
   points="26.701,206.294 26.734,206.276 26.701,206.257  "
   id="polygon51" />
	<polygon
   fill="#F2EE11"
   points="55.451,190.133 26.701,206.257 26.734,206.276 84.201,238.578 84.201,174.01  "
   id="polygon52" />
</g>
</svg>
